<?xml version="1.0" standalone="no"?><!-- Generator: Gravit.io --><svg xmlns="http://www.w3.org/2000/svg" xmlns:xlink="http://www.w3.org/1999/xlink" style="isolation:isolate" viewBox="0 0 119 379" width="119" height="379"><defs><clipPath id="_clipPath_dQgxxvRlX1DgOzx6MadGeFjQuLxgfw1v"><rect width="120" height="380"/></clipPath></defs><g clip-path="url(#_clipPath_dQgxxvRlX1DgOzx6MadGeFjQuLxgfw1v)"><g style="isolation:isolate" id="BackPanel"><rect x="0" y="0" width="120" height="380" transform="matrix(1,0,0,1,0,0)" fill="rgb(240,240,240)"/></g><g style="isolation:isolate" id="Text"><path d=" M 57.246 42.04 L 56.214 42.04 L 56.214 36.344 L 57.246 36.344 L 57.246 42.04 Z  M 62.31 40.328 L 62.31 36.344 L 63.278 36.344 L 63.278 42.04 L 62.51 42.04 L 59.438 38.048 L 59.438 42.04 L 58.478 42.04 L 58.478 36.344 L 59.246 36.344 L 62.31 40.328 Z " fill-rule="evenodd" fill="rgb(0,0,0)"/><path d=" M 57.246 339.04 L 56.214 339.04 L 56.214 333.344 L 57.246 333.344 L 57.246 339.04 Z  M 62.31 337.328 L 62.31 333.344 L 63.278 333.344 L 63.278 339.04 L 62.51 339.04 L 59.438 335.048 L 59.438 339.04 L 58.478 339.04 L 58.478 333.344 L 59.246 333.344 L 62.31 337.328 Z " fill-rule="evenodd" fill="rgb(0,0,0)"/><path d=" M 11.424 171.04 L 10.4 171.04 L 10.4 165.344 L 14.12 165.344 L 14.12 166.168 L 11.424 166.168 L 11.424 167.728 L 13.96 167.728 L 13.96 168.56 L 11.424 168.56 L 11.424 171.04 Z  M 20.36 171.04 L 19.328 171.04 L 18.76 169.704 L 15.976 169.704 L 15.4 171.04 L 14.36 171.04 L 16.936 165.344 L 17.776 165.344 L 20.36 171.04 Z  M 17.368 166.464 L 16.32 168.904 L 18.416 168.904 L 17.368 166.464 Z  M 20.976 171.04 L 20.976 165.344 L 23.072 165.344 L 23.072 165.344 Q 24.472 165.344 25.244 166.088 L 25.244 166.088 L 25.244 166.088 Q 26.016 166.832 26.016 168.184 L 26.016 168.184 L 26.016 168.184 Q 26.016 169.544 25.244 170.292 L 25.244 170.292 L 25.244 170.292 Q 24.472 171.04 23.072 171.04 L 23.072 171.04 L 20.976 171.04 Z  M 22.008 170.2 L 23.008 170.2 L 23.008 170.2 Q 24.976 170.2 24.976 168.184 L 24.976 168.184 L 24.976 168.184 Q 24.976 166.184 23.008 166.184 L 23.008 166.184 L 22.008 166.184 L 22.008 170.2 Z  M 30.88 171.04 L 27.072 171.04 L 27.072 165.344 L 30.88 165.344 L 30.88 166.16 L 28.08 166.16 L 28.08 167.736 L 30.712 167.736 L 30.712 168.552 L 28.08 168.552 L 28.08 170.224 L 30.88 170.224 L 30.88 171.04 Z " fill-rule="evenodd" fill="rgb(0,0,0)"/><path d=" M 22.42 27.618 L 22.42 27.618 Q 21.088 27.618 20.098 27.072 L 20.098 27.072 L 20.098 27.072 Q 19.108 26.526 18.574 25.53 L 18.574 25.53 L 18.574 25.53 Q 18.04 24.534 18.04 23.226 L 18.04 23.226 L 18.04 23.226 Q 18.04 21.93 18.574 20.94 L 18.574 20.94 L 18.574 20.94 Q 19.108 19.95 20.098 19.404 L 20.098 19.404 L 20.098 19.404 Q 21.088 18.858 22.42 18.858 L 22.42 18.858 L 22.42 18.858 Q 23.26 18.858 24.046 19.11 L 24.046 19.11 L 24.046 19.11 Q 24.832 19.362 25.312 19.794 L 25.312 19.794 L 24.628 21.39 L 24.628 21.39 Q 23.584 20.634 22.468 20.634 L 22.468 20.634 L 22.468 20.634 Q 21.436 20.634 20.884 21.288 L 20.884 21.288 L 20.884 21.288 Q 20.332 21.942 20.332 23.226 L 20.332 23.226 L 20.332 23.226 Q 20.332 24.522 20.884 25.182 L 20.884 25.182 L 20.884 25.182 Q 21.436 25.842 22.468 25.842 L 22.468 25.842 L 22.468 25.842 Q 23.584 25.842 24.628 25.086 L 24.628 25.086 L 25.312 26.682 L 25.312 26.682 Q 24.832 27.114 24.046 27.366 L 24.046 27.366 L 24.046 27.366 Q 23.26 27.618 22.42 27.618 L 22.42 27.618 Z  M 32.908 24.966 L 33.916 27.51 L 31.528 27.51 L 30.424 24.666 L 30.424 24.666 Q 30.232 24.186 29.524 24.186 L 29.524 24.186 L 28.708 24.186 L 28.708 27.51 L 26.488 27.51 L 26.488 18.966 L 30.46 18.966 L 30.46 18.966 Q 32.008 18.966 32.788 19.632 L 32.788 19.632 L 32.788 19.632 Q 33.568 20.298 33.568 21.534 L 33.568 21.534 L 33.568 21.534 Q 33.568 22.398 33.106 23.028 L 33.106 23.028 L 33.106 23.028 Q 32.644 23.658 31.804 23.922 L 31.804 23.922 L 31.804 23.922 Q 32.164 23.994 32.452 24.258 L 32.452 24.258 L 32.452 24.258 Q 32.74 24.522 32.908 24.966 L 32.908 24.966 Z  M 30.1 22.506 L 30.1 22.506 Q 30.82 22.506 31.144 22.284 L 31.144 22.284 L 31.144 22.284 Q 31.468 22.062 31.468 21.594 L 31.468 21.594 L 31.468 21.594 Q 31.468 21.102 31.15 20.886 L 31.15 20.886 L 31.15 20.886 Q 30.832 20.67 30.1 20.67 L 30.1 20.67 L 28.684 20.67 L 28.684 22.506 L 30.1 22.506 Z  M 39.124 27.618 L 39.124 27.618 Q 37.816 27.618 36.844 27.084 L 36.844 27.084 L 36.844 27.084 Q 35.872 26.55 35.35 25.554 L 35.35 25.554 L 35.35 25.554 Q 34.828 24.558 34.828 23.226 L 34.828 23.226 L 34.828 23.226 Q 34.828 21.894 35.356 20.91 L 35.356 20.91 L 35.356 20.91 Q 35.884 19.926 36.85 19.392 L 36.85 19.392 L 36.85 19.392 Q 37.816 18.858 39.124 18.858 L 39.124 18.858 L 39.124 18.858 Q 40.432 18.858 41.398 19.392 L 41.398 19.392 L 41.398 19.392 Q 42.364 19.926 42.88 20.91 L 42.88 20.91 L 42.88 20.91 Q 43.396 21.894 43.396 23.226 L 43.396 23.226 L 43.396 23.226 Q 43.396 24.558 42.88 25.554 L 42.88 25.554 L 42.88 25.554 Q 42.364 26.55 41.398 27.084 L 41.398 27.084 L 41.398 27.084 Q 40.432 27.618 39.124 27.618 L 39.124 27.618 Z  M 39.124 25.902 L 39.124 25.902 Q 40.084 25.902 40.63 25.218 L 40.63 25.218 L 40.63 25.218 Q 41.176 24.534 41.176 23.226 L 41.176 23.226 L 41.176 23.226 Q 41.176 21.93 40.63 21.252 L 40.63 21.252 L 40.63 21.252 Q 40.084 20.574 39.124 20.574 L 39.124 20.574 L 39.124 20.574 Q 38.164 20.574 37.624 21.246 L 37.624 21.246 L 37.624 21.246 Q 37.084 21.918 37.084 23.226 L 37.084 23.226 L 37.084 23.226 Q 37.084 24.546 37.624 25.224 L 37.624 25.224 L 37.624 25.224 Q 38.164 25.902 39.124 25.902 L 39.124 25.902 Z  M 47.812 27.618 L 47.812 27.618 Q 46.852 27.618 45.916 27.366 L 45.916 27.366 L 45.916 27.366 Q 44.98 27.114 44.392 26.682 L 44.392 26.682 L 45.1 25.086 L 45.1 25.086 Q 45.724 25.482 46.426 25.692 L 46.426 25.692 L 46.426 25.692 Q 47.128 25.902 47.836 25.902 L 47.836 25.902 L 47.836 25.902 Q 48.556 25.902 48.94 25.704 L 48.94 25.704 L 48.94 25.704 Q 49.324 25.506 49.324 25.146 L 49.324 25.146 L 49.324 25.146 Q 49.324 24.822 48.976 24.612 L 48.976 24.612 L 48.976 24.612 Q 48.628 24.402 47.668 24.198 L 47.668 24.198 L 47.668 24.198 Q 46.456 23.958 45.784 23.604 L 45.784 23.604 L 45.784 23.604 Q 45.112 23.25 44.842 22.77 L 44.842 22.77 L 44.842 22.77 Q 44.572 22.29 44.572 21.606 L 44.572 21.606 L 44.572 21.606 Q 44.572 20.826 45.016 20.196 L 45.016 20.196 L 45.016 20.196 Q 45.46 19.566 46.264 19.212 L 46.264 19.212 L 46.264 19.212 Q 47.068 18.858 48.1 18.858 L 48.1 18.858 L 48.1 18.858 Q 49.024 18.858 49.894 19.116 L 49.894 19.116 L 49.894 19.116 Q 50.764 19.374 51.256 19.794 L 51.256 19.794 L 50.56 21.39 L 50.56 21.39 Q 49.996 20.994 49.372 20.784 L 49.372 20.784 L 49.372 20.784 Q 48.748 20.574 48.124 20.574 L 48.124 20.574 L 48.124 20.574 Q 47.512 20.574 47.14 20.808 L 47.14 20.808 L 47.14 20.808 Q 46.768 21.042 46.768 21.438 L 46.768 21.438 L 46.768 21.438 Q 46.768 21.654 46.9 21.798 L 46.9 21.798 L 46.9 21.798 Q 47.032 21.942 47.392 22.08 L 47.392 22.08 L 47.392 22.08 Q 47.752 22.218 48.472 22.374 L 48.472 22.374 L 48.472 22.374 Q 49.636 22.626 50.302 22.98 L 50.302 22.98 L 50.302 22.98 Q 50.968 23.334 51.244 23.808 L 51.244 23.808 L 51.244 23.808 Q 51.52 24.282 51.52 24.942 L 51.52 24.942 L 51.52 24.942 Q 51.52 26.19 50.548 26.904 L 50.548 26.904 L 50.548 26.904 Q 49.576 27.618 47.812 27.618 L 47.812 27.618 Z  M 55.876 27.618 L 55.876 27.618 Q 54.916 27.618 53.98 27.366 L 53.98 27.366 L 53.98 27.366 Q 53.044 27.114 52.456 26.682 L 52.456 26.682 L 53.164 25.086 L 53.164 25.086 Q 53.788 25.482 54.49 25.692 L 54.49 25.692 L 54.49 25.692 Q 55.192 25.902 55.9 25.902 L 55.9 25.902 L 55.9 25.902 Q 56.62 25.902 57.004 25.704 L 57.004 25.704 L 57.004 25.704 Q 57.388 25.506 57.388 25.146 L 57.388 25.146 L 57.388 25.146 Q 57.388 24.822 57.04 24.612 L 57.04 24.612 L 57.04 24.612 Q 56.692 24.402 55.732 24.198 L 55.732 24.198 L 55.732 24.198 Q 54.52 23.958 53.848 23.604 L 53.848 23.604 L 53.848 23.604 Q 53.176 23.25 52.906 22.77 L 52.906 22.77 L 52.906 22.77 Q 52.636 22.29 52.636 21.606 L 52.636 21.606 L 52.636 21.606 Q 52.636 20.826 53.08 20.196 L 53.08 20.196 L 53.08 20.196 Q 53.524 19.566 54.328 19.212 L 54.328 19.212 L 54.328 19.212 Q 55.132 18.858 56.164 18.858 L 56.164 18.858 L 56.164 18.858 Q 57.088 18.858 57.958 19.116 L 57.958 19.116 L 57.958 19.116 Q 58.828 19.374 59.32 19.794 L 59.32 19.794 L 58.624 21.39 L 58.624 21.39 Q 58.06 20.994 57.436 20.784 L 57.436 20.784 L 57.436 20.784 Q 56.812 20.574 56.188 20.574 L 56.188 20.574 L 56.188 20.574 Q 55.576 20.574 55.204 20.808 L 55.204 20.808 L 55.204 20.808 Q 54.832 21.042 54.832 21.438 L 54.832 21.438 L 54.832 21.438 Q 54.832 21.654 54.964 21.798 L 54.964 21.798 L 54.964 21.798 Q 55.096 21.942 55.456 22.08 L 55.456 22.08 L 55.456 22.08 Q 55.816 22.218 56.536 22.374 L 56.536 22.374 L 56.536 22.374 Q 57.7 22.626 58.366 22.98 L 58.366 22.98 L 58.366 22.98 Q 59.032 23.334 59.308 23.808 L 59.308 23.808 L 59.308 23.808 Q 59.584 24.282 59.584 24.942 L 59.584 24.942 L 59.584 24.942 Q 59.584 26.19 58.612 26.904 L 58.612 26.904 L 58.612 26.904 Q 57.64 27.618 55.876 27.618 L 55.876 27.618 Z  M 63.064 27.51 L 60.844 27.51 L 60.844 18.966 L 66.808 18.966 L 66.808 20.73 L 63.064 20.73 L 63.064 22.29 L 66.568 22.29 L 66.568 24.042 L 63.064 24.042 L 63.064 27.51 Z  M 76.588 27.51 L 74.368 27.51 L 73.612 25.746 L 69.82 25.746 L 69.064 27.51 L 66.808 27.51 L 70.804 18.966 L 72.58 18.966 L 76.588 27.51 Z  M 71.716 21.354 L 70.552 24.054 L 72.88 24.054 L 71.716 21.354 Z  M 77.08 27.51 L 77.08 18.966 L 80.572 18.966 L 80.572 18.966 Q 81.988 18.966 83.014 19.476 L 83.014 19.476 L 83.014 19.476 Q 84.04 19.986 84.586 20.946 L 84.586 20.946 L 84.586 20.946 Q 85.132 21.906 85.132 23.226 L 85.132 23.226 L 85.132 23.226 Q 85.132 24.558 84.592 25.524 L 84.592 25.524 L 84.592 25.524 Q 84.052 26.49 83.026 27 L 83.026 27 L 83.026 27 Q 82 27.51 80.572 27.51 L 80.572 27.51 L 77.08 27.51 Z  M 79.336 25.71 L 80.416 25.71 L 80.416 25.71 Q 81.664 25.71 82.282 25.092 L 82.282 25.092 L 82.282 25.092 Q 82.9 24.474 82.9 23.226 L 82.9 23.226 L 82.9 23.226 Q 82.9 20.766 80.416 20.766 L 80.416 20.766 L 79.336 20.766 L 79.336 25.71 Z  M 92.548 27.51 L 86.452 27.51 L 86.452 18.966 L 92.548 18.966 L 92.548 20.694 L 88.648 20.694 L 88.648 22.302 L 92.296 22.302 L 92.296 24.03 L 88.648 24.03 L 88.648 25.782 L 92.548 25.782 L 92.548 27.51 Z  M 100.12 24.966 L 101.128 27.51 L 98.74 27.51 L 97.636 24.666 L 97.636 24.666 Q 97.444 24.186 96.736 24.186 L 96.736 24.186 L 95.92 24.186 L 95.92 27.51 L 93.7 27.51 L 93.7 18.966 L 97.672 18.966 L 97.672 18.966 Q 99.22 18.966 100 19.632 L 100 19.632 L 100 19.632 Q 100.78 20.298 100.78 21.534 L 100.78 21.534 L 100.78 21.534 Q 100.78 22.398 100.318 23.028 L 100.318 23.028 L 100.318 23.028 Q 99.856 23.658 99.016 23.922 L 99.016 23.922 L 99.016 23.922 Q 99.376 23.994 99.664 24.258 L 99.664 24.258 L 99.664 24.258 Q 99.952 24.522 100.12 24.966 L 100.12 24.966 Z  M 97.312 22.506 L 97.312 22.506 Q 98.032 22.506 98.356 22.284 L 98.356 22.284 L 98.356 22.284 Q 98.68 22.062 98.68 21.594 L 98.68 21.594 L 98.68 21.594 Q 98.68 21.102 98.362 20.886 L 98.362 20.886 L 98.362 20.886 Q 98.044 20.67 97.312 20.67 L 97.312 20.67 L 95.896 20.67 L 95.896 22.506 L 97.312 22.506 Z " fill-rule="evenodd" fill="rgb(0,0,0)"/><path d=" M 85.94 264.03 L 83.168 264.03 L 83.168 259.758 L 83.942 259.758 L 83.942 263.394 L 85.94 263.394 L 85.94 264.03 Z  M 87.302 264.03 L 86.528 264.03 L 86.528 259.758 L 87.302 259.758 L 87.302 264.03 Z  M 91.1 262.746 L 91.1 259.758 L 91.826 259.758 L 91.826 264.03 L 91.25 264.03 L 88.946 261.036 L 88.946 264.03 L 88.226 264.03 L 88.226 259.758 L 88.802 259.758 L 91.1 262.746 Z " fill-rule="evenodd" fill="rgb(0,0,0)"/><path d=" M 103.522 264.03 L 100.666 264.03 L 100.666 259.758 L 103.522 259.758 L 103.522 260.37 L 101.422 260.37 L 101.422 261.552 L 103.396 261.552 L 103.396 262.164 L 101.422 262.164 L 101.422 263.418 L 103.522 263.418 L 103.522 264.03 Z  M 107.8 259.758 L 106.222 261.858 L 107.848 264.03 L 106.942 264.03 L 105.784 262.434 L 104.626 264.03 L 103.72 264.03 L 105.346 261.852 L 103.774 259.758 L 104.68 259.758 L 105.784 261.288 L 106.9 259.758 L 107.8 259.758 Z  M 108.262 264.03 L 108.262 259.758 L 110.116 259.758 L 110.116 259.758 Q 110.806 259.758 111.19 260.091 L 111.19 260.091 L 111.19 260.091 Q 111.574 260.424 111.574 261 L 111.574 261 L 111.574 261 Q 111.574 261.576 111.187 261.912 L 111.187 261.912 L 111.187 261.912 Q 110.8 262.248 110.116 262.248 L 110.116 262.248 L 109.036 262.248 L 109.036 264.03 L 108.262 264.03 Z  M 109.036 261.648 L 110.026 261.648 L 110.026 261.648 Q 110.428 261.648 110.635 261.483 L 110.635 261.483 L 110.635 261.483 Q 110.842 261.318 110.842 261.006 L 110.842 261.006 L 110.842 261.006 Q 110.842 260.688 110.638 260.523 L 110.638 260.523 L 110.638 260.523 Q 110.434 260.358 110.026 260.358 L 110.026 260.358 L 109.036 260.358 L 109.036 261.648 Z " fill-rule="evenodd" fill="rgb(0,0,0)"/><path d=" M 93.064 171.112 L 93.064 171.112 Q 92.24 171.112 91.628 170.756 L 91.628 170.756 L 91.628 170.756 Q 91.016 170.4 90.684 169.74 L 90.684 169.74 L 90.684 169.74 Q 90.352 169.08 90.352 168.184 L 90.352 168.184 L 90.352 168.184 Q 90.352 167.296 90.68 166.636 L 90.68 166.636 L 90.68 166.636 Q 91.008 165.976 91.62 165.624 L 91.62 165.624 L 91.62 165.624 Q 92.232 165.272 93.064 165.272 L 93.064 165.272 L 93.064 165.272 Q 93.896 165.272 94.508 165.624 L 94.508 165.624 L 94.508 165.624 Q 95.12 165.976 95.444 166.636 L 95.444 166.636 L 95.444 166.636 Q 95.768 167.296 95.768 168.184 L 95.768 168.184 L 95.768 168.184 Q 95.768 169.08 95.44 169.74 L 95.44 169.74 L 95.44 169.74 Q 95.112 170.4 94.504 170.756 L 94.504 170.756 L 94.504 170.756 Q 93.896 171.112 93.064 171.112 L 93.064 171.112 Z  M 93.064 170.288 L 93.064 170.288 Q 93.856 170.288 94.296 169.744 L 94.296 169.744 L 94.296 169.744 Q 94.736 169.2 94.736 168.184 L 94.736 168.184 L 94.736 168.184 Q 94.736 167.176 94.296 166.636 L 94.296 166.636 L 94.296 166.636 Q 93.856 166.096 93.064 166.096 L 93.064 166.096 L 93.064 166.096 Q 92.272 166.096 91.832 166.632 L 91.832 166.632 L 91.832 166.632 Q 91.392 167.168 91.392 168.184 L 91.392 168.184 L 91.392 168.184 Q 91.392 169.2 91.832 169.744 L 91.832 169.744 L 91.832 169.744 Q 92.272 170.288 93.064 170.288 L 93.064 170.288 Z  M 99.176 171.112 L 99.176 171.112 Q 98 171.112 97.396 170.508 L 97.396 170.508 L 97.396 170.508 Q 96.792 169.904 96.792 168.736 L 96.792 168.736 L 96.792 165.344 L 97.808 165.344 L 97.808 168.792 L 97.808 168.792 Q 97.808 169.528 98.152 169.908 L 98.152 169.908 L 98.152 169.908 Q 98.496 170.288 99.176 170.288 L 99.176 170.288 L 99.176 170.288 Q 99.84 170.288 100.188 169.904 L 100.188 169.904 L 100.188 169.904 Q 100.536 169.52 100.536 168.792 L 100.536 168.792 L 100.536 165.344 L 101.552 165.344 L 101.552 168.736 L 101.552 168.736 Q 101.552 169.896 100.944 170.504 L 100.944 170.504 L 100.944 170.504 Q 100.336 171.112 99.176 171.112 L 99.176 171.112 Z  M 105.12 171.04 L 104.08 171.04 L 104.08 166.192 L 102.224 166.192 L 102.224 165.344 L 106.984 165.344 L 106.984 166.192 L 105.12 166.192 L 105.12 171.04 Z " fill-rule="evenodd" fill="rgb(0,0,0)"/><path d=" M 28.352 260.815 L 29.968 260.815 L 29.968 261.527 L 28.352 261.527 L 28.352 263.143 L 27.648 263.143 L 27.648 261.527 L 26.032 261.527 L 26.032 260.815 L 27.648 260.815 L 27.648 259.199 L 28.352 259.199 L 28.352 260.815 Z " fill="rgb(0,0,0)"/><path d=" M 13.02 261.623 L 8.98 261.623 L 8.98 261.023 L 13.02 261.023 L 13.02 261.623 Z " fill="rgb(0,0,0)"/></g><g style="isolation:isolate" id="Trimpots"><path d=" M 25.549 257.439 C 29.395 255.307 32 251.205 32 246.5 C 32 239.601 26.399 234 19.5 234 C 12.601 234 7 239.601 7 246.5 C 7 251.037 9.423 255.013 13.044 257.204 L 18.99 246.5 L 25.549 257.439 Z " fill="none" vector-effect="non-scaling-stroke" stroke-width="1" stroke="rgb(0,0,0)" stroke-linejoin="miter" stroke-linecap="square" stroke-miterlimit="3"/><path d=" M 103.549 257.439 C 107.395 255.307 110 251.205 110 246.5 C 110 239.601 104.399 234 97.5 234 C 90.601 234 85 239.601 85 246.5 C 85 251.037 87.423 255.013 91.044 257.204 L 96.99 246.5 L 103.549 257.439 Z " fill="none" vector-effect="non-scaling-stroke" stroke-width="1" stroke="rgb(0,0,0)" stroke-linejoin="miter" stroke-linecap="square" stroke-miterlimit="3"/><path d=" M 85 245.72 L 67 245.72 L 67 230 L 72 230 L 72 230 L 72 230" fill="none" vector-effect="non-scaling-stroke" stroke-width="1" stroke="rgb(0,0,0)" stroke-linejoin="miter" stroke-linecap="square" stroke-miterlimit="3"/><path d=" M 74 228 L 67 228 L 67 225" fill="none" vector-effect="non-scaling-stroke" stroke-width="1" stroke="rgb(0,0,0)" stroke-linejoin="miter" stroke-linecap="square" stroke-miterlimit="3"/><line x1="67" y1="205.5" x2="67" y2="176.5" vector-effect="non-scaling-stroke" stroke-width="1" stroke="rgb(0,0,0)" stroke-linejoin="miter" stroke-linecap="square" stroke-miterlimit="3"/><line x1="82" y1="191" x2="69" y2="191" vector-effect="non-scaling-stroke" stroke-width="1" stroke="rgb(0,0,0)" stroke-linejoin="miter" stroke-linecap="square" stroke-miterlimit="3"/><line x1="69" y1="186" x2="69" y2="196" vector-effect="non-scaling-stroke" stroke-width="1" stroke="rgb(0,0,0)" stroke-linejoin="miter" stroke-linecap="square" stroke-miterlimit="3"/><line x1="55.5" y1="272" x2="65.5" y2="272" vector-effect="non-scaling-stroke" stroke-width="1" stroke="rgb(0,0,0)" stroke-linejoin="miter" stroke-linecap="square" stroke-miterlimit="3"/><line x1="52.5" y1="270" x2="67.5" y2="270" vector-effect="non-scaling-stroke" stroke-width="1" stroke="rgb(0,0,0)" stroke-linejoin="miter" stroke-linecap="square" stroke-miterlimit="3"/></g><g id="Group"><clipPath id="_clipPath_cahjHFrD7Ateym9bjBGgyx0H8wqRm8SN"><rect x="50" y="355" width="20" height="20" transform="matrix(1,0,0,1,0,0)" fill="rgb(255,255,255)"/></clipPath><g clip-path="url(#_clipPath_cahjHFrD7Ateym9bjBGgyx0H8wqRm8SN)"><g id="Group"><g id="Border"><path d=" M 50 375 L 50 355 L 70 355 L 70 375 L 50 375 Z  M 51.333 373 L 51.333 356.333 L 68.667 356.333 L 68.667 373.667 L 51.333 373.667 L 51.333 373 Z " fill-rule="evenodd" fill="rgb(0,0,0)" vector-effect="non-scaling-stroke" stroke-width="0.667" stroke="rgb(0,0,0)" stroke-opacity="100" stroke-linejoin="miter" stroke-linecap="square" stroke-miterlimit="3"/></g><g id="Window"><path d=" M 62 372.333 L 62 367.667 L 64.667 365 L 67.333 367.667 L 67.333 372.333 L 62 372.333 Z " fill="none" vector-effect="non-scaling-stroke" stroke-width="1.333" stroke="rgb(0,0,0)" stroke-opacity="100" stroke-linejoin="miter" stroke-linecap="square" stroke-miterlimit="3"/></g><g id="Wall"><path d=" M 57.333 373.667 L 57.333 365 L 55.333 363 L 55.333 357.667 L 58 357.667 L 58 360.333 L 60 360.333 L 60 357.667 L 62.667 357.667 L 62.667 360.333 L 64.667 360.333 L 64.667 357.667 L 67.333 357.667 L 67.333 360.333 L 68.667 360.333 L 68.667 360.333 L 68.667 360.333" fill="none" vector-effect="non-scaling-stroke" stroke-width="1.333" stroke="rgb(0,0,0)" stroke-opacity="100" stroke-linejoin="miter" stroke-linecap="square" stroke-miterlimit="3"/></g></g></g></g><g style="isolation:isolate" id="MARKINGS"><line x1="60.5" y1="297" x2="60.5" y2="273" vector-effect="non-scaling-stroke" stroke-width="1" stroke="rgb(0,0,0)" stroke-linejoin="miter" stroke-linecap="square" stroke-miterlimit="3"/><line x1="65" y1="103" x2="55" y2="103" vector-effect="non-scaling-stroke" stroke-width="1" stroke="rgb(0,0,0)" stroke-linejoin="miter" stroke-linecap="square" stroke-miterlimit="3"/><line x1="68" y1="105" x2="53" y2="105" vector-effect="non-scaling-stroke" stroke-width="1" stroke="rgb(0,0,0)" stroke-linejoin="miter" stroke-linecap="square" stroke-miterlimit="3"/><line x1="60" y1="78" x2="60" y2="102" vector-effect="non-scaling-stroke" stroke-width="1" stroke="rgb(0,0,0)" stroke-linejoin="miter" stroke-linecap="square" stroke-miterlimit="3"/></g></g></svg>