<?xml version="1.0" standalone="no"?><!-- Generator: Gravit.io --><svg xmlns="http://www.w3.org/2000/svg" xmlns:xlink="http://www.w3.org/1999/xlink" style="isolation:isolate" viewBox="0 0 90 380" width="90" height="380"><defs><clipPath id="_clipPath_nhPFZVeOsaAKHCmK2rdwD7H6shCw2zpz"><rect width="90" height="380"/></clipPath></defs><g clip-path="url(#_clipPath_nhPFZVeOsaAKHCmK2rdwD7H6shCw2zpz)"><g style="isolation:isolate" id="Backpanel"><rect x="0" y="0" width="90" height="380" transform="matrix(1,0,0,1,0,0)" fill="rgb(240,240,240)"/></g><g style="isolation:isolate" id="Logo"><clipPath id="_clipPath_OrMxdv2gRoXf6Q0H581ybn07hNNgh2xw"><rect x="37.5" y="360" width="15" height="15" transform="matrix(1,0,0,1,0,0)" fill="rgb(255,255,255)"/></clipPath><g clip-path="url(#_clipPath_OrMxdv2gRoXf6Q0H581ybn07hNNgh2xw)"><g id="Group"><g id="Border"><path d=" M 37.5 375 L 37.5 360 L 52.5 360 L 52.5 375 L 37.5 375 Z  M 38.5 373.5 L 38.5 361 L 51.5 361 L 51.5 374 L 38.5 374 L 38.5 373.5 Z " fill-rule="evenodd" fill="rgb(0,0,0)" vector-effect="non-scaling-stroke" stroke-width="0.5" stroke="rgb(0,0,0)" stroke-opacity="100" stroke-linejoin="miter" stroke-linecap="square" stroke-miterlimit="3"/></g><g id="Window"><path d=" M 46.5 373 L 46.5 369.5 L 48.5 367.5 L 50.5 369.5 L 50.5 373 L 46.5 373 Z " fill="none" vector-effect="non-scaling-stroke" stroke-width="1" stroke="rgb(0,0,0)" stroke-opacity="100" stroke-linejoin="miter" stroke-linecap="square" stroke-miterlimit="3"/></g><g id="Wall"><path d=" M 43 374 L 43 367.5 L 41.5 366 L 41.5 362 L 43.5 362 L 43.5 364 L 45 364 L 45 362 L 47 362 L 47 364 L 48.5 364 L 48.5 362 L 50.5 362 L 50.5 364 L 51.5 364 L 51.5 364 L 51.5 364" fill="none" vector-effect="non-scaling-stroke" stroke-width="1" stroke="rgb(0,0,0)" stroke-opacity="100" stroke-linejoin="miter" stroke-linecap="square" stroke-miterlimit="3"/></g></g></g></g><g style="isolation:isolate" id="GroupOutMarkings"><path d=" M 56 35 Q 51.625 35.25 51 42 L 51 98 L 30 116 L 13 116 L 13 116" fill="none" vector-effect="non-scaling-stroke" stroke-width="2" stroke="rgb(0,0,0)" stroke-linejoin="miter" stroke-linecap="square" stroke-miterlimit="3"/><path d=" M 24 144 L 16 144 L 16 144" fill="none" vector-effect="non-scaling-stroke" stroke-width="2" stroke="rgb(0,0,0)" stroke-linejoin="miter" stroke-linecap="square" stroke-miterlimit="3"/><path d=" M 20 144 L 20 153 L 20 153 L 20 153" fill="none" vector-effect="non-scaling-stroke" stroke-width="2" stroke="rgb(0,0,0)" stroke-linejoin="miter" stroke-linecap="square" stroke-miterlimit="3"/></g><g style="isolation:isolate" id="text"><path d=" M 49.512 22.207 L 49.512 25.617 L 48.754 25.617 L 48.754 22.512 L 48.754 22.512 Q 48.742 21.883 48.523 21.883 L 48.523 21.883 L 48.523 21.883 Q 48.32 21.883 48.215 22.301 L 48.215 22.301 L 48.215 25.617 L 47.457 25.617 L 47.457 22.512 L 47.457 22.512 Q 47.449 21.883 47.23 21.883 L 47.23 21.883 L 47.23 21.883 Q 47.008 21.883 46.918 22.301 L 46.918 22.301 L 46.918 25.617 L 46.16 25.617 L 46.16 21.039 L 46.918 21.039 L 46.918 21.488 L 46.918 21.488 Q 47.145 20.953 47.594 20.953 L 47.594 20.953 L 47.594 20.953 Q 47.98 20.953 48.141 21.461 L 48.141 21.461 L 48.141 21.461 Q 48.398 20.953 48.77 20.953 L 48.77 20.953 L 48.77 20.953 Q 49.512 20.953 49.512 22.207 L 49.512 22.207 Z  M 53.559 21.039 L 53.559 25.617 L 52.473 25.617 L 52.473 25.09 L 52.473 25.09 Q 52.117 25.684 51.535 25.684 L 51.535 25.684 L 51.535 25.684 Q 51.027 25.684 50.711 25.305 L 50.711 25.305 L 50.711 25.305 Q 50.395 24.926 50.395 23.969 L 50.395 23.969 L 50.395 21.039 L 51.48 21.039 L 51.48 23.975 L 51.48 23.975 Q 51.48 24.445 51.607 24.599 L 51.607 24.599 L 51.607 24.599 Q 51.734 24.754 51.973 24.754 L 51.973 24.754 L 51.973 24.754 Q 52.375 24.754 52.473 24.198 L 52.473 24.198 L 52.473 21.039 L 53.559 21.039 Z  M 57.523 24.688 L 57.523 25.617 L 54.789 25.617 L 54.789 24.688 L 55.617 24.688 L 55.617 20.375 L 54.945 20.375 L 54.945 19.445 L 56.703 19.445 L 56.703 24.688 L 57.523 24.688 Z  M 61.219 24.457 L 62.035 25.016 L 62.035 25.016 Q 61.516 25.695 60.75 25.695 L 60.75 25.695 L 60.75 25.695 Q 59.98 25.695 59.617 25.316 L 59.617 25.316 L 59.617 25.316 Q 59.254 24.938 59.254 24.161 L 59.254 24.161 L 59.254 21.969 L 58.645 21.969 L 58.645 21.039 L 59.254 21.039 L 59.254 19.445 L 60.34 19.445 L 60.34 21.039 L 61.727 21.039 L 61.727 21.969 L 60.34 21.969 L 60.34 24.23 L 60.34 24.23 Q 60.34 24.519 60.441 24.642 L 60.441 24.642 L 60.441 24.642 Q 60.543 24.766 60.75 24.766 L 60.75 24.766 L 60.75 24.766 Q 60.996 24.766 61.219 24.457 L 61.219 24.457 Z  M 64.996 19.566 L 64.996 19.566 L 64.996 19.566 Q 64.996 19.863 64.799 20.061 L 64.799 20.061 L 64.799 20.061 Q 64.602 20.258 64.27 20.258 L 64.27 20.258 L 64.27 20.258 Q 63.938 20.258 63.742 20.061 L 63.742 20.061 L 63.742 20.061 Q 63.547 19.863 63.547 19.566 L 63.547 19.566 L 63.547 19.566 Q 63.547 19.27 63.742 19.07 L 63.742 19.07 L 63.742 19.07 Q 63.938 18.871 64.27 18.871 L 64.27 18.871 L 64.27 18.871 Q 64.602 18.871 64.799 19.07 L 64.799 19.07 L 64.799 19.07 Q 64.996 19.27 64.996 19.566 Z  M 65.762 24.688 L 65.762 25.617 L 63.031 25.617 L 63.031 24.688 L 63.855 24.688 L 63.855 21.969 L 63.148 21.969 L 63.148 21.039 L 64.941 21.039 L 64.941 24.688 L 65.762 24.688 Z  M 67.035 27.043 L 67.035 21.039 L 68.121 21.039 L 68.121 21.551 L 68.121 21.551 Q 68.477 20.961 69.059 20.961 L 69.059 20.961 L 69.059 20.961 Q 69.566 20.961 69.883 21.4 L 69.883 21.4 L 69.883 21.4 Q 70.199 21.84 70.199 22.891 L 70.199 22.891 L 70.199 23.75 L 70.199 23.75 Q 70.199 24.805 69.883 25.244 L 69.883 25.244 L 69.883 25.244 Q 69.566 25.684 69.059 25.684 L 69.059 25.684 L 69.059 25.684 Q 68.477 25.684 68.121 25.09 L 68.121 25.09 L 68.121 27.043 L 67.035 27.043 Z  M 68.121 22.412 L 68.121 24.237 L 68.121 24.237 Q 68.258 24.754 68.621 24.754 L 68.621 24.754 L 68.621 24.754 Q 68.859 24.754 68.986 24.499 L 68.986 24.499 L 68.986 24.499 Q 69.113 24.245 69.113 23.602 L 69.113 23.602 L 69.113 23.046 L 69.113 23.046 Q 69.113 22.404 68.986 22.147 L 68.986 22.147 L 68.986 22.147 Q 68.859 21.891 68.621 21.891 L 68.621 21.891 L 68.621 21.891 Q 68.262 21.891 68.121 22.412 L 68.121 22.412 Z  M 74.086 24.688 L 74.086 25.617 L 71.352 25.617 L 71.352 24.688 L 72.18 24.688 L 72.18 20.375 L 71.508 20.375 L 71.508 19.445 L 73.266 19.445 L 73.266 24.688 L 74.086 24.688 Z  M 78.398 22.895 L 78.398 23.465 L 76.324 23.465 L 76.324 23.973 L 76.324 23.973 Q 76.324 24.367 76.447 24.566 L 76.447 24.566 L 76.447 24.566 Q 76.57 24.766 76.865 24.766 L 76.865 24.766 L 76.865 24.766 Q 77.298 24.766 77.555 24.336 L 77.555 24.336 L 78.371 24.895 L 78.371 24.895 Q 77.844 25.695 76.82 25.695 L 76.82 25.695 L 76.82 25.695 Q 76.117 25.695 75.676 25.25 L 75.676 25.25 L 75.676 25.25 Q 75.234 24.805 75.234 23.758 L 75.234 23.758 L 75.234 22.895 L 75.234 22.895 Q 75.234 21.848 75.676 21.4 L 75.676 21.4 L 75.676 21.4 Q 76.117 20.953 76.82 20.953 L 76.82 20.953 L 76.82 20.953 Q 77.52 20.953 77.959 21.398 L 77.959 21.398 L 77.959 21.398 Q 78.398 21.844 78.398 22.895 L 78.398 22.895 Z  M 76.32 22.77 L 77.313 22.77 L 77.313 22.615 L 77.313 22.615 Q 77.313 22.256 77.193 22.069 L 77.193 22.069 L 77.193 22.069 Q 77.073 21.883 76.818 21.883 L 76.818 21.883 L 76.818 21.883 Q 76.564 21.883 76.442 22.069 L 76.442 22.069 L 76.442 22.069 Q 76.32 22.256 76.32 22.615 L 76.32 22.615 L 76.32 22.77 Z  M 12.242 24.344 L 12.242 24.344 L 12.242 24.344 Q 12.242 24.93 11.84 25.313 L 11.84 25.313 L 11.84 25.313 Q 11.438 25.695 10.617 25.695 L 10.617 25.695 L 10.617 25.695 Q 9.586 25.695 8.977 24.762 L 8.977 24.762 L 9.723 24.25 L 9.723 24.25 Q 10.035 24.809 10.586 24.809 L 10.586 24.809 L 10.586 24.809 Q 11.156 24.809 11.156 24.336 L 11.156 24.336 L 11.156 24.336 Q 11.156 24.078 10.836 23.922 L 10.836 23.922 L 10.145 23.586 L 10.145 23.586 Q 9.246 23.137 9.246 22.332 L 9.246 22.332 L 9.246 22.332 Q 9.246 21.691 9.65 21.322 L 9.65 21.322 L 9.65 21.322 Q 10.055 20.953 10.75 20.953 L 10.75 20.953 L 10.75 20.953 Q 11.648 20.953 12.219 21.801 L 12.219 21.801 L 11.465 22.316 L 11.465 22.316 Q 11.216 21.844 10.791 21.844 L 10.791 21.844 L 10.791 21.844 Q 10.585 21.844 10.459 21.955 L 10.459 21.955 L 10.459 21.955 Q 10.332 22.066 10.332 22.262 L 10.332 22.262 L 10.332 22.262 Q 10.332 22.559 10.683 22.73 L 10.683 22.73 L 11.264 23.016 L 11.264 23.016 Q 12.242 23.496 12.242 24.344 Z  M 15.094 22.738 L 15.473 24.84 L 15.473 21.039 L 16.527 21.039 L 16.527 21.645 L 16.527 21.645 Q 16.527 22.508 16.27 23.754 L 16.27 23.754 L 15.883 25.617 L 15.129 25.617 L 14.711 23.293 L 14.293 25.617 L 13.539 25.617 L 13.152 23.754 L 13.152 23.754 Q 12.895 22.508 12.895 21.645 L 12.895 21.645 L 12.895 21.039 L 13.949 21.039 L 13.949 24.84 L 14.328 22.738 L 15.094 22.738 Z  M 19.449 19.566 L 19.449 19.566 L 19.449 19.566 Q 19.449 19.863 19.252 20.061 L 19.252 20.061 L 19.252 20.061 Q 19.055 20.258 18.723 20.258 L 18.723 20.258 L 18.723 20.258 Q 18.391 20.258 18.195 20.061 L 18.195 20.061 L 18.195 20.061 Q 18 19.863 18 19.566 L 18 19.566 L 18 19.566 Q 18 19.27 18.195 19.07 L 18.195 19.07 L 18.195 19.07 Q 18.391 18.871 18.723 18.871 L 18.723 18.871 L 18.723 18.871 Q 19.055 18.871 19.252 19.07 L 19.252 19.07 L 19.252 19.07 Q 19.449 19.27 19.449 19.566 Z  M 20.215 24.688 L 20.215 25.617 L 17.484 25.617 L 17.484 24.688 L 18.309 24.688 L 18.309 21.969 L 17.602 21.969 L 17.602 21.039 L 19.395 21.039 L 19.395 24.688 L 20.215 24.688 Z  M 23.953 24.457 L 24.77 25.016 L 24.77 25.016 Q 24.25 25.695 23.484 25.695 L 23.484 25.695 L 23.484 25.695 Q 22.715 25.695 22.352 25.316 L 22.352 25.316 L 22.352 25.316 Q 21.988 24.938 21.988 24.161 L 21.988 24.161 L 21.988 21.969 L 21.379 21.969 L 21.379 21.039 L 21.988 21.039 L 21.988 19.445 L 23.074 19.445 L 23.074 21.039 L 24.461 21.039 L 24.461 21.969 L 23.074 21.969 L 23.074 24.23 L 23.074 24.23 Q 23.074 24.519 23.176 24.642 L 23.176 24.642 L 23.176 24.642 Q 23.277 24.766 23.484 24.766 L 23.484 24.766 L 23.484 24.766 Q 23.73 24.766 23.953 24.457 L 23.953 24.457 Z  M 27.926 24.254 L 28.82 24.855 L 28.82 24.855 Q 28.293 25.695 27.316 25.695 L 27.316 25.695 L 27.316 25.695 Q 26.574 25.695 26.131 25.211 L 26.131 25.211 L 26.131 25.211 Q 25.688 24.727 25.688 23.758 L 25.688 23.758 L 25.688 22.895 L 25.688 22.895 Q 25.688 21.926 26.131 21.439 L 26.131 21.439 L 26.131 21.439 Q 26.574 20.953 27.316 20.953 L 27.316 20.953 L 27.316 20.953 Q 28.293 20.953 28.82 21.801 L 28.82 21.801 L 28.004 22.359 L 28.004 22.359 Q 27.726 21.883 27.314 21.883 L 27.314 21.883 L 27.314 21.883 Q 27.012 21.883 26.893 22.105 L 26.893 22.105 L 26.893 22.105 Q 26.773 22.328 26.773 22.874 L 26.773 22.874 L 26.773 23.814 L 26.773 23.814 Q 26.773 24.286 26.893 24.526 L 26.893 24.526 L 26.893 24.526 Q 27.013 24.766 27.314 24.766 L 27.314 24.766 L 27.314 24.766 Q 27.687 24.766 27.926 24.254 L 27.926 24.254 Z  M 32.855 22.695 L 32.855 25.617 L 31.77 25.617 L 31.77 22.728 L 31.77 22.728 Q 31.77 22.212 31.643 22.057 L 31.643 22.057 L 31.643 22.057 Q 31.516 21.902 31.277 21.902 L 31.277 21.902 L 31.277 21.902 Q 30.875 21.902 30.777 22.458 L 30.777 22.458 L 30.777 25.617 L 29.691 25.617 L 29.691 19.445 L 30.777 19.445 L 30.777 21.566 L 30.777 21.566 Q 31.133 20.973 31.715 20.973 L 31.715 20.973 L 31.715 20.973 Q 32.223 20.973 32.539 21.352 L 32.539 21.352 L 32.539 21.352 Q 32.855 21.73 32.855 22.695 L 32.855 22.695 Z  M 36.992 22.895 L 36.992 23.465 L 34.918 23.465 L 34.918 23.973 L 34.918 23.973 Q 34.918 24.367 35.041 24.566 L 35.041 24.566 L 35.041 24.566 Q 35.163 24.766 35.459 24.766 L 35.459 24.766 L 35.459 24.766 Q 35.891 24.766 36.148 24.336 L 36.148 24.336 L 36.965 24.895 L 36.965 24.895 Q 36.438 25.695 35.414 25.695 L 35.414 25.695 L 35.414 25.695 Q 34.711 25.695 34.27 25.25 L 34.27 25.25 L 34.27 25.25 Q 33.828 24.805 33.828 23.758 L 33.828 23.758 L 33.828 22.895 L 33.828 22.895 Q 33.828 21.848 34.27 21.4 L 34.27 21.4 L 34.27 21.4 Q 34.711 20.953 35.414 20.953 L 35.414 20.953 L 35.414 20.953 Q 36.113 20.953 36.553 21.398 L 36.553 21.398 L 36.553 21.398 Q 36.992 21.844 36.992 22.895 L 36.992 22.895 Z  M 34.914 22.77 L 35.906 22.77 L 35.906 22.615 L 35.906 22.615 Q 35.906 22.256 35.787 22.069 L 35.787 22.069 L 35.787 22.069 Q 35.667 21.883 35.412 21.883 L 35.412 21.883 L 35.412 21.883 Q 35.157 21.883 35.036 22.069 L 35.036 22.069 L 35.036 22.069 Q 34.914 22.256 34.914 22.615 L 34.914 22.615 L 34.914 22.77 Z  M 41.059 19.445 L 41.059 25.617 L 39.973 25.617 L 39.973 25.105 L 39.973 25.105 Q 39.617 25.695 39.113 25.695 L 39.113 25.695 L 39.113 25.695 Q 38.527 25.695 38.211 25.256 L 38.211 25.256 L 38.211 25.256 Q 37.895 24.816 37.895 23.766 L 37.895 23.766 L 37.895 22.906 L 37.895 22.906 Q 37.895 21.852 38.211 21.412 L 38.211 21.412 L 38.211 21.412 Q 38.527 20.973 39.113 20.973 L 39.113 20.973 L 39.113 20.973 Q 39.617 20.973 39.973 21.566 L 39.973 21.566 L 39.973 19.445 L 41.059 19.445 Z  M 39.973 24.245 L 39.973 24.245 L 39.973 22.419 L 39.973 22.419 Q 39.836 21.902 39.473 21.902 L 39.473 21.902 L 39.473 21.902 Q 39.234 21.902 39.107 22.157 L 39.107 22.157 L 39.107 22.157 Q 38.98 22.412 38.98 23.054 L 38.98 23.054 L 38.98 23.61 L 38.98 23.61 Q 38.98 24.253 39.107 24.509 L 39.107 24.509 L 39.107 24.509 Q 39.234 24.766 39.473 24.766 L 39.473 24.766 L 39.473 24.766 Q 39.832 24.766 39.973 24.245 Z " fill-rule="evenodd" fill="rgb(0,0,0)"/></g><g style="isolation:isolate" id="Out1"><path d=" M 43 89 L 51 89 L 51 89" fill="none" vector-effect="non-scaling-stroke" stroke-width="2" stroke="rgb(0,0,0)" stroke-linejoin="miter" stroke-linecap="square" stroke-miterlimit="3"/><path d=" M 35 130 L 50 130 L 46 130" fill="none" vector-effect="non-scaling-stroke" stroke-width="2" stroke="rgb(0,0,0)" stroke-linejoin="miter" stroke-linecap="square" stroke-miterlimit="3"/><path d=" M 35 126 L 35 134 L 35 134" fill="none" vector-effect="non-scaling-stroke" stroke-width="2" stroke="rgb(0,0,0)" stroke-linejoin="miter" stroke-linecap="square" stroke-miterlimit="3"/><path d=" M 43 85 L 43 93 L 43 93" fill="none" vector-effect="non-scaling-stroke" stroke-width="2" stroke="rgb(0,0,0)" stroke-linejoin="miter" stroke-linecap="square" stroke-miterlimit="3"/><path d=" M 39 82 L 39 96 L 39 96" fill="none" vector-effect="non-scaling-stroke" stroke-width="2" stroke="rgb(0,0,0)" stroke-linejoin="miter" stroke-linecap="square" stroke-miterlimit="3"/><path d=" M 31 123 L 31 138 L 31 138" fill="none" vector-effect="non-scaling-stroke" stroke-width="2" stroke="rgb(0,0,0)" stroke-linejoin="miter" stroke-linecap="square" stroke-miterlimit="3"/><path d=" M 55 115 Q 50.625 115.25 50 122 L 50 178 L 29 196 L 12 196 L 12 196" fill="none" vector-effect="non-scaling-stroke" stroke-width="2" stroke="rgb(0,0,0)" stroke-linejoin="miter" stroke-linecap="square" stroke-miterlimit="3"/><path d=" M 24 224 L 16 224 L 16 224" fill="none" vector-effect="non-scaling-stroke" stroke-width="2" stroke="rgb(0,0,0)" stroke-linejoin="miter" stroke-linecap="square" stroke-miterlimit="3"/><path d=" M 20 224 L 20 233 L 20 233 L 20 233" fill="none" vector-effect="non-scaling-stroke" stroke-width="2" stroke="rgb(0,0,0)" stroke-linejoin="miter" stroke-linecap="square" stroke-miterlimit="3"/><path d=" M 35 210 L 50 210 L 46 210" fill="none" vector-effect="non-scaling-stroke" stroke-width="2" stroke="rgb(0,0,0)" stroke-linejoin="miter" stroke-linecap="square" stroke-miterlimit="3"/><path d=" M 35 206 L 35 214 L 35 214" fill="none" vector-effect="non-scaling-stroke" stroke-width="2" stroke="rgb(0,0,0)" stroke-linejoin="miter" stroke-linecap="square" stroke-miterlimit="3"/><path d=" M 31 203 L 31 218 L 31 218" fill="none" vector-effect="non-scaling-stroke" stroke-width="2" stroke="rgb(0,0,0)" stroke-linejoin="miter" stroke-linecap="square" stroke-miterlimit="3"/><path d=" M 55 195 Q 50.625 195.25 50 202 L 50 258 L 29 276 L 12 276 L 12 276" fill="none" vector-effect="non-scaling-stroke" stroke-width="2" stroke="rgb(0,0,0)" stroke-linejoin="miter" stroke-linecap="square" stroke-miterlimit="3"/><path d=" M 24 303 L 16 303 L 16 303" fill="none" vector-effect="non-scaling-stroke" stroke-width="2" stroke="rgb(0,0,0)" stroke-linejoin="miter" stroke-linecap="square" stroke-miterlimit="3"/><path d=" M 20 303 L 20 312 L 20 312 L 20 312" fill="none" vector-effect="non-scaling-stroke" stroke-width="2" stroke="rgb(0,0,0)" stroke-linejoin="miter" stroke-linecap="square" stroke-miterlimit="3"/><path d=" M 35 289 L 50 289 L 46 289" fill="none" vector-effect="non-scaling-stroke" stroke-width="2" stroke="rgb(0,0,0)" stroke-linejoin="miter" stroke-linecap="square" stroke-miterlimit="3"/><path d=" M 35 285 L 35 293 L 35 293" fill="none" vector-effect="non-scaling-stroke" stroke-width="2" stroke="rgb(0,0,0)" stroke-linejoin="miter" stroke-linecap="square" stroke-miterlimit="3"/><path d=" M 31 282 L 31 297 L 31 297" fill="none" vector-effect="non-scaling-stroke" stroke-width="2" stroke="rgb(0,0,0)" stroke-linejoin="miter" stroke-linecap="square" stroke-miterlimit="3"/><path d=" M 55 274 Q 50.625 274.25 50 281 L 50 337" fill="none" vector-effect="non-scaling-stroke" stroke-width="2" stroke="rgb(0,0,0)" stroke-linejoin="miter" stroke-linecap="square" stroke-miterlimit="3"/><path d=" M 55 346 Q 50.625 345.75 50 339 L 50 283" fill="none" vector-effect="non-scaling-stroke" stroke-width="2" stroke="rgb(0,0,0)" stroke-linejoin="miter" stroke-linecap="square" stroke-miterlimit="3"/></g></g></svg>